<svg xmlns="http://www.w3.org/2000/svg" width="320" height="360" viewBox="0 0 320 360" fill="none">
  <defs>
    <filter id="rough" x="-20%" y="-20%" width="140%" height="140%">
      <feTurbulence type="fractalNoise" baseFrequency="0.022" numOctaves="2" seed="22" result="n"></feTurbulence>
      <feDisplacementMap in="SourceGraphic" in2="n" scale="6.5" xChannelSelector="R" yChannelSelector="G"></feDisplacementMap>
    </filter>
  </defs>
  <g filter="url(#rough)" stroke="#2c2722" stroke-width="11" stroke-linecap="round" stroke-linejoin="round" fill="none" transform="translate(40 40) scale(2)">
    
    <path d="M44 36 C44 18 76 18 76 36 L76 46"></path>
    
    <path d="M76 24 C86 20 93 24 91 32 C84 33 78 30 76 24 Z" fill="#5a8a5f" stroke="#5a8a5f"></path>
    
    <path d="M60 42 C88 42 104 62 104 88 C104 114 84 130 60 130 C36 130 16 114 16 88 C16 62 32 42 60 42 Z"></path>
    
    <circle cx="60" cy="86" r="6.5" fill="#c8682f" stroke="#c8682f"></circle>
  </g>
</svg>